<svg width="1089" height="756" viewBox="0 0 1089 756" fill="none" xmlns="http://www.w3.org/2000/svg">
<path d="M513.932 459.922C489.378 419.265 446.791 405.773 432.799 402.001C428.98 391.471 427.823 380.159 429.431 369.073C432.602 347.291 437.777 311.888 438.282 309.301L332.482 350.457L224.875 386.612C226.918 388.296 253.566 412.154 269.948 426.848C278.29 434.327 284.652 443.753 288.469 454.287V454.287C280.141 466.146 256.074 503.783 263.258 550.731C270.044 595.069 300.952 623.131 321.532 641.871C336.391 655.354 353.004 666.764 370.922 675.793C378.816 681.454 387.828 685.364 397.355 687.261C406.882 689.158 416.704 688.999 426.165 686.793C429.398 686.041 435.616 684.447 441.442 682.651C444.012 681.854 447.279 680.838 451.017 679.525L451.634 679.295L452.252 679.076C455.961 677.69 459.121 676.382 461.607 675.344C467.22 672.992 473.029 670.231 475.992 668.738C484.666 664.37 492.307 658.201 498.405 650.643C504.503 643.085 508.916 634.312 511.35 624.91C519.324 606.502 524.771 587.1 527.542 567.231C531.37 539.691 537.117 498.322 513.932 459.922Z" fill="#D6B49A"/>
<path d="M410.668 689.419C396.249 689.415 382.193 684.901 370.466 676.511C352.508 667.45 335.855 656.005 320.959 642.488C300.367 623.771 269.252 595.49 262.422 550.854C255.804 507.605 275.179 471.842 287.52 454.157C283.729 443.923 277.506 434.764 269.387 427.47C253.442 413.164 226.384 388.919 224.341 387.263C224.226 387.166 224.138 387.042 224.086 386.901C224.034 386.76 224.019 386.608 224.044 386.46C224.071 386.312 224.138 386.173 224.236 386.059C224.335 385.945 224.462 385.858 224.605 385.809L332.218 349.648L437.995 308.52C438.135 308.466 438.287 308.451 438.434 308.475C438.582 308.5 438.721 308.563 438.835 308.66C438.95 308.756 439.037 308.882 439.087 309.023C439.136 309.164 439.147 309.316 439.118 309.463C438.618 312.045 433.365 347.993 430.278 369.196C428.716 379.998 429.803 391.017 433.444 401.305C454.249 406.979 492.032 422.032 514.65 459.489C537.992 498.142 532.206 539.792 528.378 567.355C525.597 587.276 520.139 606.73 512.152 625.191C509.677 634.696 505.204 643.565 499.03 651.204C492.856 658.844 485.125 665.08 476.351 669.495C473.124 671.117 467.404 673.828 461.904 676.124C459.317 677.207 456.258 678.47 452.649 679.822L452.52 679.884L451.286 680.327L451.156 680.367C447.503 681.641 444.349 682.612 441.671 683.453C435.975 685.216 429.852 686.821 426.338 687.618C421.201 688.814 415.943 689.419 410.668 689.419ZM226.547 386.937C232.26 391.932 255.99 413.198 270.515 426.224C278.952 433.802 285.392 443.342 289.266 454C289.312 454.127 289.327 454.263 289.31 454.397C289.292 454.531 289.242 454.659 289.165 454.769C276.98 472.123 257.522 507.644 264.094 550.602C270.829 594.654 301.697 622.693 322.104 641.248C336.903 654.676 353.449 666.043 371.292 675.04L371.404 675.108C379.2 680.698 388.101 684.559 397.509 686.433C406.918 688.307 416.619 688.15 425.962 685.973C429.453 685.16 435.531 683.594 441.189 681.843C443.877 681.018 447.054 680.019 450.73 678.733L450.842 678.7L451.841 678.341L451.948 678.29C455.585 676.932 458.683 675.658 461.27 674.569C466.725 672.29 472.399 669.602 475.604 667.991C484.175 663.679 491.726 657.587 497.752 650.121C503.778 642.656 508.14 633.99 510.547 624.703C510.56 624.661 510.575 624.619 510.592 624.579C518.535 606.243 523.961 586.916 526.722 567.125C530.516 539.798 536.263 498.501 513.219 460.359C490.752 423.154 453.048 408.326 432.579 402.815C432.451 402.777 432.333 402.71 432.236 402.618C432.138 402.526 432.064 402.413 432.018 402.287C428.165 391.622 426.999 380.172 428.623 368.95C431.429 349.648 436.037 318.118 437.232 310.625L332.796 351.237L226.547 386.937Z" fill="black"/>
<path d="M337.379 364.026C396.314 342.68 441.439 318.057 438.169 309.028C434.899 299.999 384.472 309.984 325.537 331.33C266.602 352.675 221.477 377.299 224.747 386.328C228.017 395.356 278.445 385.371 337.379 364.026Z" fill="#020202"/>
<path d="M235.578 390.457C229.506 390.457 224.999 389.418 223.972 386.59C221.727 380.416 237.672 370.196 251.428 362.686C270.51 352.281 296.726 340.854 325.265 330.51C353.804 320.167 381.266 312.152 402.576 307.931C417.954 304.889 436.745 302.549 438.973 308.706C441.201 314.863 425.273 325.105 411.517 332.615C392.434 343.02 366.224 354.447 337.68 364.785C309.135 375.123 281.684 383.144 260.368 387.37C252.051 389.014 242.734 390.457 235.578 390.457ZM427.411 306.5C422.287 306.5 414.559 307.275 402.907 309.581C381.67 313.791 354.304 321.783 325.837 332.093C297.371 342.403 271.234 353.796 252.225 364.162C225.42 378.788 225.027 384.592 225.543 386.017C226.06 387.443 230.078 391.63 260.032 385.714C281.263 381.51 308.635 373.513 337.096 363.203C365.557 352.893 391.699 341.505 410.703 331.133C437.502 316.507 437.895 310.71 437.379 309.278C437.076 308.425 435.454 306.5 427.411 306.5V306.5Z" fill="black"/>
<path d="M449.782 701.296L449.731 747.778C449.731 751.252 453.469 754.075 458.083 754.081H458.251C462.865 754.081 466.614 751.274 466.614 747.795L466.664 701.829C466.664 701.531 462.764 701.268 458.027 701.268H449.782" fill="#818181"/>
<path d="M458.246 754.923H458.066C453.015 754.923 448.873 751.712 448.873 747.778L448.924 700.454H458.01C460.311 700.454 462.5 700.51 464.184 700.611C466.496 700.757 467.518 700.864 467.518 701.835L467.467 747.801C467.437 748.816 467.168 749.809 466.68 750.7C466.192 751.591 465.5 752.353 464.661 752.925C462.793 754.262 460.543 754.963 458.246 754.923V754.923ZM450.607 702.166L450.557 747.806C450.557 750.814 453.924 753.261 458.066 753.267H458.246C460.178 753.301 462.07 752.71 463.639 751.583C464.264 751.165 464.782 750.604 465.149 749.948C465.517 749.292 465.725 748.558 465.755 747.806L465.806 702.458C463.232 702.211 460.646 702.106 458.061 702.143H450.607V702.166Z" fill="#343C44"/>
<path d="M893.164 701.296L893.113 747.778C893.113 751.252 896.851 754.075 901.465 754.081H901.633C906.246 754.081 909.995 751.274 909.995 747.795L910.046 701.829C910.046 701.531 906.117 701.268 901.408 701.268H893.164" fill="#818181"/>
<path d="M901.628 754.923H901.448C896.397 754.923 892.255 751.712 892.255 747.778L892.305 700.454H901.392C903.715 700.454 905.882 700.51 907.538 700.611C909.85 700.757 910.871 700.864 910.871 701.835L910.821 747.801C910.791 748.816 910.521 749.809 910.034 750.7C909.546 751.591 908.854 752.353 908.015 752.925C906.154 754.257 903.916 754.957 901.628 754.923ZM893.989 702.166L893.939 747.806C893.939 750.814 897.306 753.261 901.448 753.267H901.628C903.56 753.301 905.451 752.71 907.021 751.583C907.646 751.165 908.163 750.604 908.531 749.948C908.899 749.292 909.106 748.558 909.137 747.806L909.188 702.458C906.614 702.211 904.028 702.106 901.442 702.143H893.989V702.166Z" fill="#343C44"/>
<path d="M936.099 689.79H335.428C333.828 689.79 332.293 690.426 331.162 691.557C330.03 692.689 329.395 694.223 329.395 695.823V695.823C329.395 697.424 330.03 698.958 331.162 700.09C332.293 701.221 333.828 701.857 335.428 701.857H930.206C931.009 701.856 931.805 701.695 932.546 701.383C933.286 701.071 933.957 700.613 934.519 700.038C935.08 699.463 935.521 698.782 935.816 698.034C936.11 697.286 936.252 696.487 936.233 695.683L936.099 689.79Z" fill="#DCDBDA"/>
<path d="M930.207 702.699H335.429C333.606 702.699 331.857 701.974 330.567 700.685C329.278 699.396 328.554 697.647 328.554 695.823C328.554 694 329.278 692.251 330.567 690.962C331.857 689.673 333.606 688.948 335.429 688.948H936.942L937.093 695.683C937.113 696.599 936.949 697.509 936.611 698.361C936.274 699.212 935.769 699.988 935.127 700.641C934.486 701.295 933.72 701.814 932.875 702.167C932.03 702.52 931.123 702.701 930.207 702.699V702.699ZM335.429 690.632C334.052 690.632 332.732 691.179 331.758 692.153C330.784 693.126 330.237 694.447 330.237 695.823C330.237 697.2 330.784 698.521 331.758 699.494C332.732 700.468 334.052 701.015 335.429 701.015H930.207C930.898 701.014 931.582 700.876 932.219 700.607C932.856 700.339 933.433 699.946 933.916 699.451C934.399 698.956 934.779 698.37 935.032 697.727C935.286 697.084 935.408 696.397 935.393 695.706L935.275 690.654L335.429 690.632Z" fill="black"/>
<path d="M305.397 376.056C305.397 376.056 283.721 458.839 287.336 493.518C289.491 514.217 288.818 548.52 287.897 572.878C287.613 580.547 284.342 587.801 278.783 593.091C273.224 598.382 265.817 601.289 258.143 601.194C250.47 601.099 243.138 598.008 237.711 592.581C232.285 587.155 229.196 579.822 229.101 572.148C228.95 559.801 227.541 550.406 228.821 543.413C236.493 501.426 224.74 500.758 231.672 462.448C232.858 458.302 234.085 454.132 235.354 449.938C241.987 428.049 249.256 407.704 256.961 387.859C265.234 387.079 274.472 384.62 284.423 382.398C292.073 380.692 299.071 378.143 305.397 376.056Z" fill="#4EA7F1"/>
<path d="M258.532 602.028C250.583 602 242.963 598.856 237.307 593.271C231.651 587.687 228.41 580.107 228.281 572.159C228.23 567.793 228.011 563.74 227.821 560.126C227.473 553.548 227.169 547.863 228.011 543.289C231.94 521.9 230.756 511.23 229.628 500.915C228.505 490.739 227.461 481.131 230.862 462.324V462.245C232.064 458.058 233.304 453.827 234.55 449.718C240.583 429.8 247.458 410.055 256.18 387.577L256.371 387.095L256.887 387.044C263.319 386.444 270.396 384.799 277.889 383.059C279.971 382.577 282.087 382.083 284.242 381.606C290.101 380.205 295.881 378.493 301.557 376.476C302.765 376.064 303.953 375.668 305.121 375.286L306.585 374.798L306.198 376.296C305.979 377.121 284.596 459.321 288.154 493.461C290.298 514.065 289.658 548.054 288.743 572.934C288.472 580.757 285.168 588.168 279.529 593.599C273.89 599.029 266.36 602.052 258.532 602.028ZM232.513 462.638C229.145 481.159 230.2 490.661 231.3 500.707C232.423 511.141 233.624 521.933 229.667 543.564C228.864 547.969 229.162 553.565 229.504 560.036C229.695 563.645 229.914 567.736 229.964 572.137C230.06 579.588 233.063 586.707 238.333 591.976C243.604 597.244 250.724 600.245 258.176 600.337C265.627 600.429 272.82 597.606 278.219 592.47C283.618 587.333 286.797 580.291 287.077 572.844C287.991 548.014 288.631 514.115 286.515 493.607C283.198 461.74 301.321 388.728 304.223 377.34L302.107 378.019C296.375 380.055 290.54 381.782 284.624 383.194C282.48 383.677 280.366 384.161 278.282 384.648C270.935 386.331 263.981 387.97 257.578 388.621C248.957 410.852 242.155 430.423 236.183 450.156C234.937 454.287 233.702 458.474 232.513 462.638V462.638Z" fill="black"/>
<path d="M315.516 552.774C310.51 552.774 306.845 545.517 305.414 542.671C295.541 523.123 310.465 489.022 316.257 476.916C321.791 489.376 335.519 523.196 325.652 542.671C324.159 545.562 320.506 552.774 315.516 552.774Z" fill="#4EA7F1"/>
<path d="M315.516 553.616C309.988 553.616 306.245 546.202 304.651 543.036C295.323 524.571 307.457 493.445 315.477 476.54L316.263 474.856L317.009 476.54C324.524 493.45 335.732 524.566 326.382 543.019C324.782 546.202 321.028 553.616 315.516 553.616ZM316.207 478.931C308.349 495.875 297.439 525.037 306.144 542.279C307.479 544.916 311.021 551.932 315.511 551.932C320.001 551.932 323.537 544.916 324.878 542.279C333.605 525.032 323.57 495.881 316.207 478.931Z" fill="black"/>
<path d="M986.768 465.573C924.61 411.789 847.579 423.744 836.472 425.652C729.544 442.719 643.057 481.776 629.817 531.329C627.097 541.56 624.905 551.925 623.25 562.382C596.788 557.892 552.371 555.692 526.503 583.833L526.374 583.979C519.028 592.016 524.18 605.003 535.012 606.131C541.5 606.804 549.295 607.456 558.085 607.882C576.331 608.769 615.382 637.067 639.835 655.874C655.09 673.3 676.621 683.98 699.725 685.581H700.096C706.881 690.132 724.791 700.796 749.581 700.414C762.657 700.187 775.509 696.975 787.156 691.025L877.168 689.79C918.835 701.885 952.291 700.622 972.681 698.068C1001.98 694.403 1012.98 687.085 1017.91 683.038C1034.91 669.007 1041.1 647.152 1045.48 625.269C1054.47 580.308 1039.99 511.629 986.768 465.573Z" fill="#F8F3ED"/>
<path d="M748.308 701.296C725.639 701.296 708.353 692.114 699.855 686.457H699.67C676.371 684.843 654.655 674.082 639.258 656.52C598.848 625.478 571.516 609.376 558.046 608.753C550.245 608.371 542.466 607.782 534.923 606.996C532.285 606.727 529.775 605.727 527.675 604.109C525.575 602.491 523.968 600.319 523.036 597.837C522.084 595.425 521.834 592.792 522.314 590.244C522.795 587.695 523.987 585.335 525.752 583.435L525.881 583.295C537.46 570.701 553.826 562.888 574.541 560.059C592.433 557.618 610.376 559.425 622.555 561.44C624.193 551.236 626.345 541.12 629.004 531.133C635.38 507.269 659.115 484.6 697.639 465.58C734.052 447.62 782.01 433.516 836.339 424.839C844.325 423.47 865.804 420.624 892.57 423.913C929.168 428.403 961.041 442.226 987.319 464.957C1012.03 486.463 1030.35 514.361 1040.26 545.591C1049 572.873 1051.15 601.238 1046.31 625.45C1042.21 645.907 1036.35 668.963 1018.44 683.701C1009.27 691.245 994.34 696.223 972.782 698.922C941.65 702.817 909.441 700.045 877.057 690.65L787.364 691.879C775.647 697.822 762.735 701.034 749.598 701.274C749.166 701.296 748.734 701.296 748.308 701.296ZM700.321 684.762L700.563 684.908C708.981 690.521 726.537 699.966 749.57 699.601C762.517 699.362 775.239 696.182 786.775 690.302L786.949 690.212L877.309 688.977L877.433 689.011C909.637 698.355 941.662 701.134 972.603 697.261C993.835 694.606 1008.49 689.752 1017.4 682.416C1034.88 668.026 1040.65 645.301 1044.68 625.13C1053.58 580.652 1039.07 511.961 986.247 466.242C926.194 414.26 851.082 424.025 836.647 426.512C782.47 435.16 734.675 449.197 698.413 467.101C660.338 485.902 636.906 508.195 630.654 531.576C627.939 541.781 625.757 552.12 624.116 562.551L623.981 563.393L623.139 563.247C598.444 559.044 553.101 556.209 527.166 584.434L527.037 584.575C525.482 586.245 524.433 588.323 524.011 590.566C523.589 592.809 523.811 595.126 524.652 597.247C525.472 599.429 526.882 601.34 528.726 602.767C530.569 604.193 532.773 605.078 535.091 605.324C542.606 606.104 550.351 606.693 558.102 607.069C571.931 607.743 599.595 623.946 640.324 655.235L640.448 655.347C655.545 672.597 676.853 683.175 699.721 684.773L700.321 684.762Z" fill="black"/>
<path d="M622.645 561.546C617.38 546.084 609.366 516.77 608.681 489.062C608.174 468.48 610.544 447.929 615.725 428.004C600.991 397.729 594.668 364.051 597.417 330.494C597.561 328.865 598.12 327.299 599.041 325.947C599.961 324.596 601.213 323.502 602.676 322.77C604.138 322.039 605.764 321.694 607.398 321.769C609.032 321.844 610.619 322.336 612.009 323.198L686.15 369.281C713.742 361.785 742.724 360.981 770.69 366.935L837.932 311.933C838.987 311.069 840.251 310.499 841.598 310.283C842.944 310.067 844.324 310.212 845.596 310.703C846.868 311.195 847.987 312.015 848.838 313.08C849.69 314.145 850.243 315.417 850.442 316.766C855.912 354.847 852.734 393.671 841.143 430.356C846.296 446.141 847.668 462.917 845.15 479.33" fill="#F8F3ED"/>
<path d="M621.848 561.815C618.761 552.751 608.625 520.715 607.817 489.084C607.307 468.528 609.661 448.001 614.81 428.093C600.108 397.757 593.806 364.035 596.559 330.437C596.693 328.664 597.285 326.955 598.278 325.48C599.271 324.004 600.63 322.811 602.222 322.018C603.822 321.205 605.606 320.819 607.4 320.898C609.194 320.978 610.937 321.52 612.459 322.473L686.29 368.366C713.775 360.96 742.622 360.156 770.477 366.02L837.405 311.259C838.574 310.299 839.978 309.667 841.472 309.427C842.966 309.186 844.497 309.348 845.908 309.893C847.319 310.439 848.56 311.35 849.504 312.533C850.448 313.715 851.06 315.128 851.279 316.625C856.758 354.742 853.597 393.603 842.03 430.333C847.15 446.17 848.496 462.986 845.958 479.436L844.275 479.178C846.771 462.896 845.408 446.255 840.295 430.597L840.211 430.338L840.295 430.08C851.849 393.515 855.016 354.817 849.562 316.861C849.383 315.66 848.889 314.528 848.131 313.58C847.372 312.633 846.376 311.903 845.243 311.466C844.111 311.029 842.883 310.9 841.684 311.093C840.486 311.285 839.36 311.792 838.421 312.562L770.864 367.838L770.471 367.754C742.636 361.827 713.788 362.627 686.324 370.089L685.97 370.184L611.521 323.904C610.244 323.105 608.781 322.65 607.275 322.583C605.77 322.516 604.272 322.84 602.929 323.523C601.6 324.184 600.464 325.179 599.633 326.409C598.802 327.639 598.304 329.064 598.186 330.544C595.442 363.957 601.737 397.494 616.41 427.639L616.545 427.919L616.466 428.223C611.304 448.07 608.942 468.543 609.45 489.044C610.231 520.44 620.299 552.274 623.369 561.282L621.848 561.815Z" fill="black"/>
<path d="M238.917 661.166H238.754C238.754 661.166 233.984 661.105 229.527 656.828C226.019 653.461 229.05 638.627 239.63 621.425C248.666 638.902 250.899 653.489 247.577 656.828C243.311 661.144 238.917 661.166 238.917 661.166Z" fill="#4EA7F1"/>
<path d="M238.923 662.008H238.754C238.541 662.008 233.596 661.89 228.955 657.44C224.628 653.292 229.106 636.937 238.934 620.959L239.714 619.69L240.399 621.015C248.817 637.33 252.258 653.309 248.2 657.4C243.738 661.89 239.153 661.986 238.934 661.986L238.923 662.008ZM239.574 623.148C229.247 640.406 227.372 653.595 230.105 656.222C234.275 660.223 238.715 660.324 238.76 660.324H238.911C238.996 660.324 243.059 660.201 246.993 656.239C249.597 653.59 248.396 640.737 239.574 623.148V623.148Z" fill="black"/>
<path d="M1047.79 596.624C1056.1 600.452 1069.25 608.079 1078.09 622.441C1098.53 655.639 1083.3 704.248 1054.88 729.824C1034.24 748.39 1010.49 751.308 991.797 753.716C980.842 755.125 930.061 761.45 895.185 729.824C888.13 723.426 871.613 708.435 874.049 689.903C875.311 680.362 881.788 667.627 892.833 664.085C913.998 657.272 926.665 692.243 966.407 696.542C972.132 697.16 996.647 699.113 1015.8 683.634C1018.93 681.097 1024.11 676.337 1030.39 665.674C1036.84 654.713 1047.75 631.994 1047.79 596.624Z" fill="#343C44"/>
<path d="M969.819 756C939.299 756 913.1 747.205 894.613 730.447C887.457 723.959 870.698 708.76 873.207 689.79C874.604 679.261 881.704 666.779 892.57 663.266C903.233 659.837 911.534 666.358 922.063 674.603C932.811 683.022 946.196 693.489 966.491 695.689C975.252 696.637 997.539 697.294 1015.26 682.96C1018.5 680.345 1023.51 675.664 1029.66 665.23C1040.93 646.097 1046.91 622.374 1046.94 596.624V595.311L1048.14 595.872C1061.6 602.09 1071.95 610.885 1078.81 622.009C1088.44 637.651 1090.86 657.962 1085.62 679.2C1080.77 698.882 1069.77 717.561 1055.43 730.464C1034.77 749.052 1011.25 752.071 992.353 754.502L991.899 754.558C984.577 755.51 977.202 755.992 969.819 756V756ZM898.249 664.04C896.497 664.044 894.756 664.324 893.092 664.871C882.888 668.154 876.209 680.025 874.885 690.009C872.488 708.104 888.787 722.887 895.746 729.201C918.196 749.54 952.252 757.948 991.719 752.88L992.174 752.818C1010.84 750.421 1034.07 747.436 1054.34 729.195C1081.84 704.444 1097.69 655.818 1077.4 622.884C1070.93 612.372 1061.26 603.987 1048.65 597.948C1048.42 623.491 1042.38 647.024 1031.14 666.083C1024.85 676.747 1019.69 681.574 1016.35 684.273C998.14 699 975.314 698.304 966.345 697.361C945.579 695.116 931.975 684.453 921.064 675.933C912.729 669.423 905.849 664.04 898.249 664.04V664.04Z" fill="#343C44"/>
<path d="M787.37 691.755C787.178 691.754 786.992 691.689 786.843 691.568C786.694 691.448 786.59 691.281 786.549 691.094C786.508 690.907 786.532 690.711 786.617 690.54C786.701 690.368 786.842 690.23 787.016 690.149C787.398 689.97 825.484 671.943 834.262 637.954C834.284 637.842 834.329 637.735 834.394 637.641C834.459 637.547 834.543 637.467 834.64 637.406C834.737 637.345 834.845 637.305 834.958 637.287C835.071 637.27 835.187 637.275 835.298 637.304C835.409 637.333 835.512 637.384 835.603 637.454C835.693 637.524 835.769 637.612 835.824 637.712C835.879 637.812 835.914 637.923 835.925 638.037C835.936 638.151 835.924 638.266 835.889 638.375C831.197 656.565 818.345 670.096 808.388 678.223C802.027 683.467 795.095 687.976 787.723 691.665C787.614 691.722 787.493 691.753 787.37 691.755V691.755Z" fill="#343C44"/>
<path d="M770.718 366.946L837.96 311.944C839.015 311.079 840.28 310.51 841.626 310.294C842.972 310.078 844.352 310.223 845.624 310.714C846.896 311.205 848.015 312.025 848.866 313.09C849.718 314.156 850.271 315.427 850.471 316.776C852.289 329.449 852.788 342.291 852.912 362.237C853.035 382.184 846.02 400.469 841.249 430.496C824.717 402.658 800.122 380.497 770.718 366.946V366.946Z" fill="#343C44"/>
<path d="M841.713 432.92L840.524 430.928C824.08 403.236 799.616 381.191 770.368 367.709L769.15 367.148L837.431 311.276C838.6 310.316 840.004 309.683 841.498 309.443C842.992 309.203 844.523 309.364 845.934 309.91C847.345 310.456 848.586 311.367 849.53 312.549C850.474 313.732 851.086 315.144 851.305 316.642C853.202 329.859 853.64 343.368 853.758 362.243C853.836 374.461 851.21 386.253 848.145 399.896C846.17 408.775 843.93 418.838 842.056 430.63L841.713 432.92ZM772.288 366.749C800.603 380.092 824.402 401.418 840.759 428.104C842.561 417.233 844.649 407.866 846.501 399.532C849.638 385.428 852.113 374.276 852.046 362.254C851.928 343.452 851.485 329.999 849.61 316.877C849.432 315.677 848.938 314.545 848.179 313.597C847.421 312.649 846.425 311.92 845.292 311.483C844.16 311.046 842.931 310.917 841.733 311.109C840.534 311.302 839.408 311.809 838.47 312.578L772.288 366.749Z" fill="#343C44"/>
<path d="M702.061 687.265C701.855 687.266 701.655 687.192 701.5 687.057C699.928 685.687 696.258 681.916 696.179 676.517C696.112 671.763 698.828 668.457 699.72 667.368C704.266 661.829 710.985 661.324 718.769 660.735C723.158 660.403 728.136 660.027 733.272 658.669C742.313 656.278 750.872 651.064 758.707 643.173C758.867 643.025 759.078 642.944 759.296 642.947C759.514 642.951 759.722 643.04 759.876 643.194C760.03 643.348 760.119 643.556 760.123 643.774C760.127 643.992 760.046 644.204 759.897 644.363C751.854 652.467 743.06 657.833 733.698 660.297C728.417 661.694 723.36 662.076 718.898 662.413C711.192 662.974 705.108 663.457 701.022 668.435C700.226 669.406 697.807 672.364 697.863 676.494C697.93 681.209 701.23 684.565 702.611 685.788C702.778 685.936 702.88 686.144 702.895 686.367C702.909 686.59 702.836 686.81 702.689 686.978C702.611 687.068 702.514 687.14 702.406 687.189C702.298 687.239 702.18 687.264 702.061 687.265Z" fill="#343C44"/>
<path d="M726.755 515.244C774.18 515.244 812.625 485.845 812.625 449.579C812.625 413.313 774.18 383.913 726.755 383.913C679.33 383.913 640.885 413.313 640.885 449.579C640.885 485.845 679.33 515.244 726.755 515.244Z" fill="#343C44"/>
<path d="M726.756 516.085C678.944 516.085 640.044 486.249 640.044 449.578C640.044 412.906 678.944 383.07 726.756 383.07C774.568 383.07 813.468 412.906 813.468 449.578C813.468 486.249 774.568 516.085 726.756 516.085ZM726.756 384.754C679.892 384.754 641.728 413.832 641.728 449.578C641.728 485.323 679.892 514.401 726.756 514.401C773.62 514.401 811.784 485.323 811.784 449.578C811.784 413.832 773.62 384.754 726.756 384.754Z" fill="#343C44"/>
<path d="M672.035 463.048C681.799 463.048 689.714 455.133 689.714 445.369C689.714 435.605 681.799 427.689 672.035 427.689C662.271 427.689 654.355 435.605 654.355 445.369C654.355 455.133 662.271 463.048 672.035 463.048Z" fill="#F8F59C"/>
<path d="M672.035 463.89C668.372 463.89 664.791 462.803 661.745 460.768C658.699 458.733 656.325 455.841 654.924 452.456C653.522 449.072 653.155 445.348 653.87 441.755C654.584 438.163 656.348 434.863 658.938 432.272C661.529 429.682 664.829 427.918 668.421 427.204C672.014 426.489 675.738 426.856 679.122 428.257C682.507 429.659 685.399 432.033 687.434 435.079C689.47 438.125 690.556 441.706 690.556 445.369C690.556 450.281 688.604 454.992 685.131 458.465C681.658 461.938 676.947 463.89 672.035 463.89V463.89ZM672.035 428.531C668.705 428.531 665.449 429.519 662.68 431.369C659.912 433.219 657.753 435.849 656.479 438.925C655.205 442.002 654.871 445.387 655.521 448.653C656.171 451.92 657.774 454.92 660.129 457.274C662.484 459.629 665.484 461.233 668.75 461.882C672.016 462.532 675.401 462.199 678.478 460.924C681.555 459.65 684.184 457.492 686.034 454.723C687.885 451.954 688.872 448.699 688.872 445.369C688.872 440.903 687.098 436.621 683.941 433.463C680.783 430.305 676.5 428.531 672.035 428.531Z" fill="#343C44"/>
<path d="M850.229 317.125C850.229 317.125 810.942 370.443 807.013 382.79C804.072 392.023 817.464 387.449 824.412 384.553C824.712 384.429 825.043 384.398 825.362 384.466C825.68 384.534 825.97 384.696 826.194 384.931C826.418 385.167 826.566 385.465 826.617 385.786C826.669 386.107 826.622 386.436 826.483 386.73L821.824 396.569C821.526 397.2 821.419 397.906 821.518 398.597C821.616 399.288 821.916 399.936 822.379 400.458C822.843 400.981 823.449 401.356 824.124 401.536C824.799 401.717 825.512 401.695 826.174 401.474L831.736 399.622C832.03 399.524 832.345 399.512 832.646 399.588C832.946 399.665 833.217 399.826 833.428 400.053C833.639 400.279 833.78 400.562 833.834 400.867C833.889 401.172 833.854 401.486 833.734 401.772L831.719 411.414L841.26 430.496C852.69 393.852 855.758 355.112 850.24 317.125H850.229Z" fill="#F3D2C9"/>
<path d="M841.428 432.741L830.821 411.526L832.948 401.424C833.005 401.286 833.021 401.136 832.995 400.989C832.969 400.843 832.901 400.707 832.8 400.599C832.699 400.49 832.568 400.412 832.424 400.375C832.28 400.339 832.129 400.344 831.988 400.391L826.426 402.249C825.607 402.524 824.725 402.551 823.89 402.328C823.055 402.105 822.304 401.641 821.731 400.994C821.158 400.347 820.789 399.545 820.668 398.69C820.548 397.834 820.683 396.962 821.055 396.182L825.713 386.343C825.781 386.202 825.804 386.043 825.779 385.889C825.754 385.734 825.682 385.591 825.573 385.479C825.466 385.365 825.327 385.286 825.175 385.254C825.022 385.222 824.863 385.238 824.72 385.299C815.297 389.228 809.297 390.115 806.895 387.915C805.66 386.792 805.43 384.962 806.21 382.51C810.139 370.162 847.944 318.781 849.549 316.597L850.767 314.947L851.059 316.973C856.609 355.084 853.541 393.953 842.079 430.721L841.428 432.741ZM832.594 411.302L841.063 428.24C851.744 392.967 854.685 355.805 849.684 319.291C843.016 328.417 811.267 372.188 807.815 383.043C807.254 384.822 807.321 386.051 808.028 386.702C809.802 388.324 815.796 387.23 824.074 383.773C824.533 383.583 825.038 383.538 825.523 383.641C826.008 383.744 826.451 383.992 826.793 384.351C827.135 384.711 827.36 385.165 827.438 385.655C827.517 386.144 827.446 386.647 827.234 387.095L822.576 396.928C822.348 397.41 822.266 397.948 822.341 398.476C822.416 399.004 822.644 399.498 822.997 399.897C823.35 400.297 823.813 400.583 824.328 400.722C824.843 400.861 825.387 400.845 825.893 400.677L831.455 398.825C831.894 398.678 832.367 398.658 832.817 398.768C833.268 398.878 833.677 399.114 833.999 399.448C834.321 399.781 834.542 400.199 834.636 400.653C834.73 401.108 834.693 401.579 834.53 402.013L832.594 411.302Z" fill="black"/>
<path d="M685.785 369.32C661.169 354.06 635.638 337.835 611.022 322.575C605.931 319.42 597.742 323.484 597.67 329.472C597.518 342.274 595.425 356.468 599.353 376.055C601.469 386.629 602.412 392.096 604.55 399.347C607.422 409.095 611.129 418.578 615.629 427.69C618.524 421.985 621.904 416.54 625.732 411.414C628.959 407.087 640.638 392.096 661.651 379.984C669.296 375.585 677.385 372.011 685.785 369.32V369.32Z" fill="#343C44"/>
<path d="M615.618 429.569L614.877 428.06C610.358 418.905 606.633 409.38 603.742 399.588C601.941 393.476 600.936 388.515 599.477 381.011C599.185 379.529 598.871 377.941 598.528 376.218C595.492 361.064 596.036 349.093 596.513 338.553C596.659 335.387 596.794 332.379 596.828 329.461C596.861 326.542 598.708 323.691 601.767 322.013C605.022 320.222 608.737 320.166 611.465 321.861C623.773 329.483 636.513 337.486 648.838 345.226C661.163 352.965 673.915 360.974 686.228 368.607L687.777 369.567L686.043 370.128C677.701 372.801 669.665 376.351 662.072 380.719C643.175 391.613 631.614 404.942 626.405 411.924C622.61 417.013 619.256 422.416 616.381 428.077L615.618 429.569ZM606.969 322.327C605.432 322.34 603.923 322.739 602.581 323.489C600.061 324.87 598.54 327.109 598.512 329.483C598.478 332.446 598.337 335.449 598.197 338.626C597.72 349.076 597.181 360.913 600.178 375.892C600.521 377.615 600.835 379.198 601.133 380.685C602.654 388.408 603.574 393.077 605.359 399.111C608.063 408.276 611.505 417.206 615.652 425.815C618.396 420.61 621.541 415.626 625.058 410.908C630.345 403.825 642.07 390.299 661.23 379.254C668.407 375.128 675.974 371.722 683.821 369.084C671.978 361.738 659.771 354.071 647.951 346.635C635.604 338.895 622.892 330.92 610.589 323.27C609.493 322.626 608.24 322.3 606.969 322.327V322.327Z" fill="#343C44"/>
<path d="M597.669 328.349C597.669 328.349 639.976 365.357 645.212 375.05C645.521 375.611 646.834 378.204 645.863 379.377C644.011 381.622 636.092 375.965 632.466 378.861C632.099 379.16 631.79 379.525 631.557 379.938C631.149 380.704 630.972 381.572 631.046 382.436C631.121 383.301 631.445 384.125 631.978 384.81C633.191 386.42 634.784 389.002 634.633 391.455C634.632 392.184 634.407 392.895 633.987 393.492C632.904 394.817 630.889 394.828 630.334 394.828C626.658 394.828 624.671 391.286 624.581 391.124C624.102 390.736 623.5 390.531 622.884 390.544C622.268 390.558 621.676 390.789 621.214 391.197C620.921 391.504 620.736 391.898 620.686 392.319C620.556 393.29 620.716 394.279 621.146 395.159C622.364 397.623 620.939 405.57 620.108 409.151C618.854 414.493 616.771 419.606 613.934 424.304C608.883 413.27 602.064 395.681 598.781 374.354C596.998 362.706 596.342 350.914 596.822 339.141C597.035 334.747 597.389 331.043 597.669 328.349Z" fill="#F3D2C9"/>
<path d="M613.946 425.164H613.901C613.748 425.156 613.599 425.105 613.472 425.018C613.346 424.931 613.246 424.81 613.183 424.67C605.821 408.727 600.695 391.845 597.951 374.5C596.159 362.805 595.499 350.964 595.981 339.142C596.149 335.522 596.43 331.846 596.822 328.276C596.836 328.122 596.892 327.974 596.985 327.849C597.077 327.724 597.202 327.627 597.346 327.569C597.49 327.511 597.648 327.494 597.801 327.52C597.954 327.545 598.097 327.613 598.214 327.715C599.943 329.23 640.695 364.937 645.92 374.652C646.481 375.729 647.727 378.412 646.481 379.916C645.235 381.42 642.962 380.668 640.274 379.877C637.586 379.086 634.594 378.193 632.978 379.518C632.692 379.749 632.454 380.033 632.276 380.354C631.951 380.974 631.812 381.675 631.876 382.372C631.94 383.069 632.203 383.732 632.635 384.283C633.999 386.096 635.593 388.823 635.442 391.478C635.432 392.386 635.14 393.269 634.605 394.004C633.719 395.087 632.271 395.642 630.306 395.648C626.529 395.648 624.374 392.426 623.914 391.658C623.594 391.449 623.216 391.349 622.836 391.371C622.455 391.393 622.091 391.537 621.798 391.781C621.636 391.969 621.536 392.202 621.512 392.449C621.411 393.248 621.545 394.06 621.899 394.784C623.487 397.994 621.192 408.186 620.922 409.337C619.65 414.764 617.534 419.959 614.653 424.732C614.582 424.858 614.48 424.964 614.356 425.04C614.232 425.116 614.091 425.158 613.946 425.164ZM598.338 330.055C598.035 333.092 597.816 336.162 597.676 339.198C597.194 350.915 597.846 362.651 599.623 374.242C602.249 390.903 607.099 407.137 614.041 422.509C616.423 418.279 618.194 413.733 619.3 409.006C620.294 404.723 621.411 397.607 620.423 395.575C619.899 394.535 619.703 393.361 619.862 392.208C619.937 391.601 620.209 391.035 620.636 390.597C621.251 390.049 622.04 389.738 622.863 389.721C623.687 389.703 624.489 389.98 625.126 390.501C625.204 390.563 625.267 390.642 625.311 390.732C625.311 390.765 627.113 393.992 630.312 393.992C631.749 393.992 632.759 393.644 633.315 392.965C633.617 392.506 633.776 391.966 633.769 391.416C633.881 389.267 632.478 386.926 631.283 385.321C630.649 384.507 630.266 383.525 630.181 382.496C630.097 381.467 630.314 380.436 630.806 379.529C631.094 379.023 631.475 378.575 631.928 378.21C634.246 376.358 637.709 377.374 640.762 378.272C642.525 378.788 644.691 379.428 645.207 378.833C645.583 378.379 645.263 376.925 644.461 375.466C639.864 366.918 605.314 336.212 598.338 330.055Z" fill="black"/>
<path d="M672.034 457.996C679.008 457.996 684.662 452.342 684.662 445.368C684.662 438.394 679.008 432.74 672.034 432.74C665.06 432.74 659.406 438.394 659.406 445.368C659.406 452.342 665.06 457.996 672.034 457.996Z" fill="black"/>
<path d="M672.034 458.838C669.37 458.838 666.766 458.048 664.551 456.568C662.336 455.088 660.609 452.984 659.59 450.523C658.57 448.062 658.304 445.353 658.823 442.74C659.343 440.128 660.626 437.727 662.51 435.844C664.393 433.96 666.794 432.677 669.406 432.157C672.019 431.638 674.728 431.904 677.189 432.924C679.65 433.943 681.754 435.67 683.234 437.885C684.714 440.1 685.504 442.704 685.504 445.368C685.504 448.941 684.085 452.367 681.559 454.893C679.033 457.419 675.607 458.838 672.034 458.838ZM672.034 433.582C669.703 433.582 667.424 434.273 665.486 435.568C663.548 436.864 662.037 438.704 661.145 440.858C660.253 443.012 660.02 445.381 660.475 447.668C660.929 449.954 662.052 452.054 663.7 453.702C665.349 455.351 667.449 456.473 669.735 456.928C672.021 457.383 674.391 457.149 676.545 456.257C678.698 455.365 680.539 453.855 681.834 451.916C683.129 449.978 683.82 447.699 683.82 445.368C683.82 442.242 682.579 439.245 680.368 437.034C678.158 434.824 675.16 433.582 672.034 433.582Z" fill="#343C44"/>
<path d="M785.406 463.048C795.17 463.048 803.085 455.133 803.085 445.369C803.085 435.605 795.17 427.689 785.406 427.689C775.642 427.689 767.727 435.605 767.727 445.369C767.727 455.133 775.642 463.048 785.406 463.048Z" fill="#F8F59C"/>
<path d="M785.405 463.89C781.742 463.89 778.161 462.803 775.115 460.768C772.069 458.733 769.695 455.841 768.294 452.456C766.892 449.072 766.525 445.348 767.24 441.755C767.954 438.163 769.718 434.863 772.309 432.272C774.899 429.682 778.199 427.918 781.792 427.204C785.384 426.489 789.108 426.856 792.493 428.257C795.877 429.659 798.769 432.033 800.805 435.079C802.84 438.125 803.926 441.706 803.926 445.369C803.926 450.281 801.975 454.992 798.501 458.465C795.028 461.938 790.317 463.89 785.405 463.89V463.89ZM785.405 428.531C782.075 428.531 778.819 429.519 776.051 431.369C773.282 433.219 771.124 435.849 769.849 438.925C768.575 442.002 768.241 445.387 768.891 448.653C769.541 451.92 771.144 454.92 773.499 457.274C775.854 459.629 778.854 461.233 782.12 461.882C785.386 462.532 788.772 462.199 791.848 460.924C794.925 459.65 797.554 457.492 799.405 454.723C801.255 451.954 802.242 448.699 802.242 445.369C802.242 440.903 800.468 436.621 797.311 433.463C794.153 430.305 789.87 428.531 785.405 428.531Z" fill="#343C44"/>
<path d="M785.405 457.996C792.38 457.996 798.033 452.342 798.033 445.368C798.033 438.394 792.38 432.74 785.405 432.74C778.431 432.74 772.777 438.394 772.777 445.368C772.777 452.342 778.431 457.996 785.405 457.996Z" fill="black"/>
<path d="M785.405 458.838C782.741 458.838 780.137 458.048 777.922 456.568C775.707 455.088 773.98 452.984 772.961 450.523C771.941 448.062 771.675 445.353 772.194 442.74C772.714 440.128 773.997 437.727 775.881 435.844C777.765 433.96 780.165 432.677 782.778 432.157C785.39 431.638 788.099 431.904 790.56 432.924C793.021 433.943 795.125 435.67 796.605 437.885C798.085 440.1 798.875 442.704 798.875 445.368C798.875 448.941 797.456 452.367 794.93 454.893C792.404 457.419 788.978 458.838 785.405 458.838ZM785.405 433.582C783.074 433.582 780.796 434.273 778.857 435.568C776.919 436.864 775.408 438.704 774.516 440.858C773.624 443.012 773.391 445.381 773.846 447.668C774.301 449.954 775.423 452.054 777.071 453.702C778.72 455.351 780.82 456.473 783.106 456.928C785.392 457.383 787.762 457.149 789.916 456.257C792.069 455.365 793.91 453.855 795.205 451.916C796.5 449.978 797.191 447.699 797.191 445.368C797.191 442.242 795.95 439.245 793.739 437.034C791.529 434.824 788.531 433.582 785.405 433.582Z" fill="#343C44"/>
<path d="M722.692 448.809L728.439 449.578L733.709 448.826C733.937 448.793 734.169 448.826 734.378 448.921C734.588 449.016 734.765 449.17 734.89 449.363C735.015 449.556 735.082 449.781 735.082 450.011C735.083 450.242 735.017 450.467 734.893 450.661L729.791 458.675C729.64 458.902 729.436 459.089 729.197 459.22C728.957 459.351 728.69 459.422 728.417 459.426C728.144 459.43 727.874 459.369 727.631 459.246C727.387 459.123 727.177 458.942 727.019 458.72L721.536 450.678C721.406 450.485 721.336 450.259 721.331 450.028C721.327 449.796 721.39 449.568 721.512 449.371C721.633 449.174 721.81 449.016 722.019 448.916C722.228 448.816 722.462 448.779 722.692 448.809V448.809Z" fill="#F3D2C9"/>
<path d="M728.389 460.287C727.979 460.285 727.575 460.181 727.215 459.985C726.855 459.789 726.548 459.507 726.323 459.164L720.84 451.127C720.617 450.801 720.494 450.418 720.485 450.023C720.476 449.628 720.581 449.239 720.788 448.903C720.996 448.567 721.296 448.298 721.653 448.129C722.009 447.96 722.407 447.898 722.799 447.951L728.411 448.703L733.569 447.962C733.956 447.908 734.349 447.966 734.704 448.129C735.059 448.292 735.36 448.552 735.571 448.88C735.783 449.208 735.897 449.589 735.899 449.979C735.901 450.37 735.792 450.752 735.584 451.082L730.482 459.097C730.261 459.447 729.955 459.737 729.594 459.94C729.232 460.143 728.826 460.252 728.411 460.259L728.389 460.287ZM722.524 449.623C722.463 449.623 722.403 449.639 722.351 449.669C722.299 449.7 722.256 449.744 722.226 449.797C722.186 449.855 722.164 449.923 722.164 449.994C722.164 450.064 722.186 450.133 722.226 450.19L727.71 458.227C727.788 458.337 727.891 458.428 728.011 458.49C728.132 458.552 728.265 458.585 728.4 458.586C728.536 458.586 728.67 458.55 728.789 458.483C728.908 458.417 729.008 458.321 729.079 458.205L734.175 450.19C734.216 450.134 734.238 450.066 734.238 449.996C734.238 449.927 734.216 449.859 734.175 449.803C734.139 449.744 734.086 449.696 734.023 449.667C733.96 449.638 733.89 449.629 733.822 449.64L728.439 450.409L722.574 449.629L722.524 449.623Z" fill="black"/>
<path d="M720.054 469.031C719.492 469.031 718.881 468.997 718.252 468.936C718.029 468.913 717.824 468.803 717.681 468.629C717.539 468.456 717.472 468.233 717.494 468.01C717.517 467.786 717.627 467.581 717.801 467.439C717.974 467.297 718.197 467.23 718.421 467.252C721.709 467.577 724.123 466.96 725.582 465.411C727.72 463.166 727.187 459.602 727.182 459.563C727.147 459.34 727.203 459.112 727.337 458.93C727.47 458.748 727.671 458.626 727.894 458.592C728.118 458.558 728.345 458.614 728.527 458.747C728.709 458.881 728.831 459.081 728.865 459.305C728.865 459.479 729.527 463.71 726.828 466.567C725.268 468.212 723 469.031 720.054 469.031Z" fill="black"/>
<path d="M736.465 469.592C733.518 469.592 731.257 468.773 729.73 467.139C727.03 464.283 727.665 460.051 727.693 459.877C727.727 459.654 727.848 459.453 728.03 459.319C728.213 459.186 728.44 459.13 728.664 459.164C728.887 459.198 729.087 459.32 729.221 459.502C729.355 459.684 729.411 459.912 729.376 460.135C729.376 460.197 728.86 463.755 730.981 465.994C732.446 467.538 734.848 468.15 738.137 467.824C738.361 467.802 738.584 467.869 738.757 468.011C738.931 468.153 739.041 468.359 739.063 468.582C739.086 468.805 739.018 469.028 738.876 469.202C738.734 469.375 738.529 469.486 738.306 469.508C737.643 469.558 737.043 469.592 736.465 469.592Z" fill="black"/>
<path d="M845.738 451.262L885.306 439.195Z" fill="#F8F3ED"/>
<path d="M845.739 452.103C845.539 452.101 845.345 452.028 845.194 451.897C845.043 451.765 844.943 451.584 844.914 451.386C844.884 451.188 844.926 450.986 845.032 450.816C845.138 450.646 845.301 450.519 845.492 450.458L885.06 438.392C885.267 438.344 885.485 438.376 885.669 438.483C885.854 438.589 885.991 438.761 886.054 438.964C886.116 439.168 886.1 439.387 886.007 439.579C885.914 439.771 885.752 439.92 885.554 439.997L845.986 452.064C845.906 452.09 845.823 452.103 845.739 452.103V452.103Z" fill="black"/>
<path d="M847.142 459.961L884.464 465.854Z" fill="#F8F3ED"/>
<path d="M884.464 466.696H884.335L847.013 460.803C846.789 460.769 846.589 460.647 846.455 460.465C846.322 460.283 846.266 460.055 846.3 459.832C846.334 459.609 846.456 459.408 846.638 459.275C846.82 459.141 847.048 459.085 847.271 459.119L884.594 465.012C884.817 465.029 885.024 465.134 885.17 465.304C885.316 465.474 885.388 465.695 885.371 465.919C885.354 466.142 885.249 466.349 885.079 466.495C884.909 466.641 884.688 466.713 884.464 466.696Z" fill="black"/>
<path d="M609.736 459.961L575.781 467.538Z" fill="#F8F3ED"/>
<path d="M575.781 468.379C575.558 468.404 575.334 468.339 575.159 468.198C574.984 468.058 574.871 467.853 574.847 467.63C574.822 467.407 574.888 467.183 575.028 467.008C575.169 466.832 575.373 466.72 575.596 466.696L609.551 459.119C609.763 459.085 609.979 459.133 610.156 459.253C610.333 459.373 610.457 459.556 610.504 459.765C610.552 459.973 610.518 460.192 610.409 460.376C610.301 460.561 610.127 460.697 609.922 460.758L575.967 468.334C575.907 468.358 575.845 468.373 575.781 468.379V468.379Z" fill="black"/>
<path d="M611.139 450.701L573.816 444.808Z" fill="#F8F3ED"/>
<path d="M611.139 451.542H611.01L573.687 445.649C573.577 445.632 573.471 445.593 573.375 445.535C573.279 445.477 573.196 445.401 573.13 445.311C573.064 445.221 573.016 445.118 572.989 445.01C572.963 444.901 572.958 444.788 572.975 444.678C572.992 444.567 573.03 444.461 573.088 444.365C573.146 444.27 573.222 444.186 573.313 444.12C573.403 444.054 573.505 444.006 573.614 443.98C573.722 443.953 573.835 443.948 573.946 443.965L611.268 449.858C611.492 449.875 611.699 449.98 611.845 450.15C611.99 450.32 612.063 450.541 612.046 450.764C612.029 450.988 611.923 451.195 611.753 451.341C611.583 451.487 611.363 451.559 611.139 451.542V451.542Z" fill="black"/>
<path d="M190.93 115.919C215.945 127.351 244.417 153.023 278.321 185.783C330.399 236.104 362.957 317.355 373.171 347.982C369.933 349.486 356.205 324.028 352.967 325.532C342.151 295.932 320.824 247.603 274.954 200.375C237.463 161.773 204.798 133.211 178.42 120.678L190.93 115.919Z" fill="#8BB174"/>
<path d="M372.852 348.907C370.854 348.907 368.037 345.237 362.385 337.256C359.298 332.901 354.64 326.323 353.282 326.323L352.451 326.704L352.187 325.829C334.564 277.562 309.106 236.748 274.36 200.969C232.828 158.185 202.206 132.918 178.073 121.446L176.288 120.605L190.97 114.992L191.296 115.138C215.255 126.094 242.588 150.059 278.917 185.164C301.558 207.053 322.846 236.883 342.203 273.869C359.983 307.897 370.344 336.852 373.969 347.712L374.211 348.425L373.526 348.739C373.317 348.845 373.087 348.903 372.852 348.907V348.907ZM353.534 324.645C355.521 324.937 358.333 328.624 363.755 336.279C366.28 339.854 369.855 344.906 371.814 346.589C366.202 330.167 333.734 240.514 277.738 186.377C241.695 151.568 214.57 127.76 190.903 116.839L180.542 120.767C204.586 132.694 234.854 157.877 275.561 199.785C310.33 235.598 335.85 276.434 353.534 324.645Z" fill="black"/>
<path d="M329.985 366.323C288.071 330.965 229.376 288.036 209.8 280.515C159.412 261.152 114.681 252.705 85.7148 252.419C88.8279 249.224 91.9465 246.032 95.0708 242.844C122.572 242.721 162.201 250.359 206.758 265.855C224.628 272.079 293.033 316.637 342.018 361.631L329.985 366.323Z" fill="#8BB174"/>
<path d="M329.826 367.288L329.439 366.968C288.732 332.603 229.459 288.955 209.496 281.3C164.669 264.086 118.367 253.58 85.7024 253.26H83.7324L94.7103 242.035H95.7094C124.333 242.035 164.855 250.42 207.004 265.097C224.588 271.22 292.313 314.901 342.55 361.069L343.543 361.984L329.826 367.288ZM87.6836 251.604C120.404 252.3 165.955 262.767 210.13 279.728C230.189 287.434 289.372 330.959 330.174 365.357L340.445 361.339C291.286 316.439 223.392 272.539 206.476 266.651C164.507 252.059 124.198 243.685 95.7374 243.685H95.4512L87.6836 251.604Z" fill="black"/>
<path d="M373.755 349.003C363.788 335.589 340.328 294.484 326.656 281.222C299.353 254.792 267.753 233.198 233.209 217.363L220.688 222.1C258.995 240.368 293.733 265.329 323.266 295.808C333.2 306.073 353.82 343.946 361.666 354.178L373.755 349.003Z" fill="#8BB174"/>
<path d="M361.397 355.222L360.999 354.705C357.85 350.592 352.816 342.319 346.968 332.744C338.336 318.573 328.559 302.51 322.644 296.398C293.2 265.972 258.542 241.071 220.312 222.875L218.55 221.994L233.238 216.438L233.563 216.583C268.206 232.445 299.888 254.102 327.246 280.621C336.299 289.399 349.662 310.367 360.398 327.205C366.106 336.184 371.062 343.901 374.43 348.476L375.069 349.329L361.397 355.222ZM222.826 222.207C260.536 240.416 294.735 265.139 323.85 295.236C329.895 301.483 339.728 317.63 348.399 331.88C353.736 340.641 358.788 348.936 361.925 353.168L372.426 348.678C369.03 343.986 364.338 336.617 358.956 328.164C348.264 311.383 334.963 290.499 326.05 281.856C298.92 255.551 267.514 234.052 233.176 218.278L222.826 222.207Z" fill="black"/>
<path d="M741.909 656.677L760.991 699.331C751.467 700.412 741.842 700.224 732.368 698.77C732.368 698.77 715.985 696.867 705.097 688.668C697.531 682.988 697.172 678.986 697.077 677.791C696.639 672.324 700.242 668.457 701.64 667.127L702.061 666.745C707.112 662.334 716.092 661.734 716.653 661.694C722.4 661.341 730.342 659.853 741.909 656.677Z" fill="#343C44"/>
<path d="M748.717 700.864C743.2 700.867 737.691 700.445 732.238 699.601C731.593 699.528 715.536 697.586 704.592 689.37C699.344 685.441 696.532 681.568 696.24 677.887C695.797 672.398 699.046 668.43 701.061 666.549L701.505 666.145C706.489 661.779 714.975 660.999 716.591 660.887C722.664 660.477 730.869 658.832 741.684 655.835L742.38 655.645L762.231 699.983L761.109 700.112C756.995 700.592 752.858 700.843 748.717 700.864V700.864ZM741.42 657.682C730.835 660.555 722.742 662.172 716.692 662.57C715.738 662.632 707.269 663.317 702.599 667.414C702.425 667.565 702.268 667.711 702.218 667.762C700.433 669.445 697.514 672.965 697.902 677.752C698.154 680.929 700.741 684.386 705.585 688.023C716.159 695.959 732.283 697.917 732.446 697.934C741.476 699.32 750.646 699.55 759.734 698.619L741.42 657.682Z" fill="#343C44"/>
<path d="M570.045 610.504L587.006 560.143C575.485 559.974 564.043 562.072 553.331 566.317C545.62 569.536 538.432 573.887 532.004 579.226C531.443 579.703 523.585 586.454 523.305 592.959C523.305 593.313 523.305 593.644 523.305 593.666C523.434 599.15 527.419 602.646 528.951 603.769L529.411 604.105C534.109 607.428 539.839 607.058 548.286 607.265C553.051 607.383 555.43 607.445 558.388 607.826C562.349 608.35 566.252 609.247 570.045 610.504V610.504Z" fill="#343C44"/>
<path d="M570.045 611.351C569.955 611.349 569.866 611.334 569.781 611.306C566.038 610.069 562.185 609.191 558.276 608.685C555.357 608.303 552.983 608.247 548.257 608.123C547.197 608.123 546.175 608.079 545.193 608.062C538.25 607.949 533.233 607.865 528.917 604.812L528.434 604.453C526.262 602.769 522.592 599.188 522.457 593.683C522.457 593.683 522.457 593.307 522.457 592.914C522.76 586.1 530.567 579.326 531.437 578.574C537.961 573.187 545.244 568.792 553.05 565.531C563.864 561.253 575.411 559.136 587.039 559.301C587.173 559.302 587.305 559.335 587.424 559.398C587.542 559.46 587.644 559.55 587.721 559.66C587.798 559.77 587.847 559.896 587.866 560.029C587.884 560.162 587.87 560.297 587.825 560.423L570.864 610.784C570.806 610.953 570.695 611.1 570.547 611.201C570.4 611.303 570.224 611.356 570.045 611.351V611.351ZM585.76 560.973C574.759 560.973 563.858 563.05 553.629 567.097C546.008 570.294 538.901 574.598 532.537 579.871C532.206 580.151 524.405 586.791 524.118 592.992C524.118 593.301 524.118 593.593 524.118 593.632C524.236 598.448 527.486 601.647 529.433 603.123L529.865 603.443C533.76 606.193 538.559 606.249 545.199 606.384C546.186 606.384 547.208 606.417 548.28 606.445C553.062 606.563 555.464 606.625 558.466 607.007C562.205 607.494 565.893 608.309 569.489 609.442L585.816 560.968L585.76 560.973Z" fill="#343C44"/>
<path d="M75.6009 82.5185L59.858 73.9315C55.9328 71.7903 52.7295 68.5348 50.652 64.5755C48.5744 60.6162 47.7157 56.1304 48.1842 51.6838L49.5031 39.2186C50.0307 34.2222 51.6375 29.4001 54.2123 25.0859C56.7871 20.7717 60.2684 17.0683 64.4153 14.232V14.232C66.8202 12.5881 69.616 11.6073 72.5209 11.3886C75.4257 11.1698 78.3368 11.7208 80.9608 12.986C82.4749 13.6909 84.0263 14.3129 85.6079 14.8494C103.891 21.3113 120.522 31.731 134.313 45.3642L109.915 89.607L75.6009 82.5185Z" fill="#F44174"/>
<path d="M110.347 90.556L75.309 83.316L75.1967 83.2543L59.4539 74.6729C55.3811 72.4547 52.0586 69.0772 49.9074 64.9687C47.7562 60.8601 46.8732 56.2055 47.3703 51.5945L48.6892 39.1293C49.2265 34.0112 50.8706 29.0711 53.5076 24.6518C56.1447 20.2326 59.7115 16.4398 63.9607 13.5366C66.4909 11.8109 69.4307 10.7816 72.4847 10.552C75.5388 10.3225 78.5995 10.9008 81.3592 12.2289C82.8467 12.9191 84.3698 13.5299 85.9221 14.0586C104.321 20.556 121.055 31.0437 134.924 44.7698L135.379 45.2132L110.347 90.556ZM75.8927 81.7164L109.477 88.659L133.269 45.5163C119.658 32.1827 103.295 21.988 85.3272 15.6469C83.7174 15.1078 82.138 14.4821 80.5959 13.7723C78.1034 12.5714 75.3385 12.0486 72.5796 12.2565C69.8208 12.4644 67.1654 13.3957 64.8811 14.9566C60.8319 17.7213 57.4327 21.3341 54.9197 25.5441C52.4066 29.7542 50.8399 34.4607 50.3281 39.337L49.0091 51.8022C48.5487 56.0831 49.3697 60.4044 51.3681 64.2182C53.3664 68.0321 56.4521 71.1667 60.234 73.2248L75.8927 81.7164Z" fill="black"/>
<path d="M90.4347 67.6516L90.0475 67.6797C85.1141 68.0393 80.4284 69.9813 76.6871 73.217C72.9458 76.4528 70.3485 80.8095 69.2815 85.6395L67.7773 92.4418C66.2197 99.4871 67.2477 106.858 70.6737 113.208C74.0997 119.558 79.6952 124.464 86.4387 127.031L132.736 144.654L139.863 94.0301L107.873 72.3156C102.752 68.8396 96.6069 67.1961 90.4347 67.6516V67.6516Z" fill="#F44174"/>
<path d="M133.426 145.817L86.1415 127.823C79.2085 125.184 73.4556 120.14 69.9328 113.612C66.41 107.084 65.3522 99.5062 66.9526 92.2627L68.4567 85.466C69.5429 80.4484 72.2297 75.9194 76.1126 72.5608C79.9954 69.2023 84.8642 67.196 89.986 66.844L90.3733 66.8159C96.7295 66.3638 103.054 68.0575 108.333 71.6257L140.762 93.6377L133.426 145.817ZM90.4968 68.494L90.1095 68.5221C85.349 68.8486 80.8236 70.7133 77.2148 73.8351C73.6061 76.957 71.1095 81.1669 70.1012 85.8308L68.597 92.6275C67.1184 99.4734 68.1334 106.622 71.4591 112.786C74.7849 118.95 80.2028 123.723 86.7364 126.246L132.051 143.493L138.955 94.4459L107.424 73.0232C102.457 69.6639 96.5061 68.069 90.5248 68.494H90.4968Z" fill="black"/>
<path d="M172.528 36.6824L154.495 12.779C151.054 8.21101 146.383 4.71734 141.029 2.70667C135.675 0.696 129.859 0.251472 124.261 1.42508L118.351 2.66543C115.492 3.26078 112.825 4.55344 110.586 6.42844C108.348 8.30344 106.607 10.7027 105.52 13.4127C104.432 16.1227 104.031 19.0595 104.353 21.9618C104.674 24.8642 105.708 27.6421 107.362 30.0485L122.516 51.5441L170.002 68.7238L172.528 36.6824Z" fill="#F44174"/>
<path d="M170.754 69.8968L121.982 52.2513L106.672 30.5368C104.945 28.0166 103.867 25.1091 103.534 22.0723C103.2 19.0356 103.622 15.9635 104.76 13.1287C105.899 10.2938 107.72 7.78389 110.061 5.82159C112.403 3.85928 115.192 2.50528 118.183 1.87973L124.098 0.644994C129.841 -0.543933 135.803 -0.0827461 141.294 1.9752C146.786 4.03314 151.582 7.60375 155.129 12.274L173.353 36.4074L173.325 36.7273L170.754 69.8968ZM123.049 50.8482L169.245 67.562L171.636 36.9631L153.799 13.3123C150.444 8.89075 145.906 5.50919 140.71 3.55858C135.513 1.60796 129.871 1.16795 124.435 2.28943L118.519 3.52978C115.802 4.0985 113.266 5.32906 111.138 7.11235C109.009 8.89564 107.354 11.1766 106.318 13.7529C105.282 16.3292 104.898 19.1213 105.199 21.8816C105.501 24.642 106.479 27.2852 108.047 29.5771L123.049 50.8482Z" fill="black"/>
<path d="M133.504 113.847C153.692 113.847 170.058 97.4811 170.058 77.293C170.058 57.1049 153.692 40.7393 133.504 40.7393C113.316 40.7393 96.9502 57.1049 96.9502 77.293C96.9502 97.4811 113.316 113.847 133.504 113.847Z" fill="#F8F59C"/>
<path d="M133.487 114.673C127.403 114.67 121.412 113.184 116.034 110.342C110.655 107.5 106.051 103.389 102.621 98.3647C99.1906 93.3406 97.0382 87.5554 96.3502 81.511C95.6623 75.4667 96.4595 69.3458 98.6728 63.6793C100.886 58.0128 104.448 52.972 109.051 48.9941C113.654 45.0161 119.157 42.2213 125.085 40.852C131.012 39.4828 137.184 39.5804 143.065 41.1365C148.946 42.6926 154.358 45.6602 158.832 49.7817V49.7817C164.372 54.88 168.242 61.5319 169.938 68.8666C171.634 76.2013 171.076 83.8772 168.337 90.8895C165.598 97.9018 160.806 103.924 154.588 108.167C148.37 112.411 141.015 114.678 133.487 114.673V114.673ZM133.515 41.5988C125.193 41.6019 117.134 44.5125 110.731 49.8274C104.328 55.1422 99.9824 62.5273 98.4466 70.706C96.9107 78.8847 98.2807 87.343 102.32 94.6187C106.359 101.894 112.813 107.53 120.566 110.552C128.32 113.574 136.886 113.792 144.783 111.168C152.68 108.545 159.412 103.244 163.816 96.1831C168.22 89.1221 170.018 80.7444 168.9 72.4982C167.782 64.252 163.818 56.6556 157.693 51.022V51.022C151.107 44.9498 142.473 41.5848 133.515 41.5988Z" fill="#343C44"/>
<path d="M141.855 36.6713L140.07 50.3825C139.358 55.8322 140.66 61.0012 143.719 64.8738L168.222 95.8993L182.59 133.385C185.558 128.316 188.098 123.009 190.184 117.518C190.184 117.518 195.605 102.264 194.983 85.1852C193.86 53.4862 171.494 28.2695 167.757 24.1556C166.163 22.2294 164.003 20.8547 161.583 20.2269C156.913 19.1044 153.035 21.5795 151.02 22.8591C144.297 27.1302 142.355 34.4544 141.855 36.6713Z" fill="#F44174"/>
<path d="M182.417 135.282L167.477 96.3209L143.057 65.4076C139.847 61.3442 138.494 55.9731 139.235 50.254L141.037 36.4699C141.845 32.8611 144.163 26.2048 150.578 22.1301C152.587 20.8561 156.751 18.2014 161.803 19.3913C164.399 20.0547 166.716 21.5269 168.42 23.595C174.565 30.358 194.753 54.8394 195.848 85.1353C196.465 102.186 191.055 117.626 191.004 117.783C188.891 123.327 186.325 128.688 183.332 133.812L182.417 135.282ZM142.687 36.8179L140.902 50.4898C140.223 55.7262 141.463 60.6483 144.376 64.3525L168.964 95.479L169.009 95.5969L182.748 131.438C185.3 126.861 187.523 122.109 189.399 117.216C189.45 117.081 194.748 101.928 194.142 85.2251C193.064 55.4792 173.196 31.4075 167.134 24.7343C165.655 22.9353 163.643 21.6521 161.387 21.0694C157.066 20.0367 153.423 22.349 151.47 23.5894C145.588 27.2992 143.444 33.456 142.687 36.8179Z" fill="black"/>
<path d="M132.118 144.727L104.393 131.914C98.7145 129.281 94.2976 124.524 92.0932 118.666C89.8887 112.808 90.073 106.319 92.6065 100.596L98.3704 87.5868C101.59 80.3226 107.442 74.5475 114.747 71.4236C122.053 68.2997 130.271 68.0588 137.747 70.7495L170.962 82.732C177.591 85.1297 183.191 89.7396 186.819 95.7846C190.446 101.83 191.878 108.94 190.875 115.918V115.918C189.372 123.06 185.978 129.666 181.047 135.046C168.285 148.712 150.117 147.954 146.884 147.797C141.829 147.573 136.843 146.537 132.118 144.727V144.727Z" fill="#F44174"/>
<path d="M148.956 148.695C148.182 148.695 147.48 148.695 146.868 148.656C141.716 148.426 136.635 147.364 131.821 145.513H131.765L104.057 132.677C98.1942 129.933 93.6356 125.008 91.3531 118.951C89.0705 112.894 89.2447 106.185 91.8384 100.254L97.5968 87.2445C100.921 79.7999 106.932 73.8843 114.429 70.6805C121.927 67.4767 130.357 67.2207 138.034 69.9638L171.249 81.9464C178.053 84.4254 183.799 89.1654 187.527 95.3738C191.255 101.582 192.738 108.882 191.729 116.053V116.115C190.195 123.407 186.727 130.151 181.688 135.641C171.002 147.051 156.449 148.695 148.956 148.695ZM132.428 143.981C137.067 145.758 141.962 146.777 146.924 147C153.238 147.269 169.15 146.596 180.431 134.518C185.255 129.257 188.575 122.796 190.045 115.812C190.995 109.029 189.589 102.126 186.06 96.2561C182.532 90.3862 177.095 85.9054 170.659 83.5628L137.445 71.5746C130.169 68.9747 122.18 69.2171 115.075 72.2535C107.97 75.2898 102.273 80.8963 99.1234 87.9517L93.3594 100.967C90.9439 106.492 90.7826 112.743 92.9099 118.386C95.0372 124.029 99.2849 128.617 104.747 131.173L132.428 143.981Z" fill="black"/>
<path d="M35.2927 191.377L32.9916 183.436C31.5421 178.431 31.8848 173.078 33.9607 168.299C36.0366 163.52 39.7154 159.616 44.3623 157.259V157.259C48.5231 155.154 53.1878 154.249 57.8339 154.646C62.4801 155.042 66.924 156.725 70.6678 159.504C77.7339 161.873 109.702 173.434 126.124 206.924C131.818 218.628 134.928 231.42 135.244 244.432C135.259 245.262 135.05 246.081 134.64 246.804C134.229 247.526 133.632 248.124 132.911 248.537C132.19 248.949 131.371 249.16 130.541 249.148C129.71 249.136 128.898 248.901 128.19 248.467L35.2927 191.377Z" fill="#F44174"/>
<path d="M130.609 250.012C129.593 250.008 128.598 249.722 127.735 249.187L34.5689 191.94L32.178 183.684C30.6779 178.492 31.034 172.939 33.185 167.982C35.3361 163.024 39.1477 158.971 43.9641 156.52C48.2378 154.335 53.0358 153.386 57.8193 153.777C62.6028 154.169 67.1825 155.886 71.0441 158.737C82.8302 162.699 111.51 175.226 126.86 206.543C132.629 218.348 135.771 231.263 136.07 244.399C136.105 245.383 135.87 246.358 135.389 247.217C134.908 248.076 134.2 248.787 133.342 249.271C132.512 249.753 131.569 250.008 130.609 250.012V250.012ZM36.0113 190.834L128.616 247.75C129.197 248.11 129.864 248.306 130.547 248.318C131.229 248.331 131.903 248.159 132.496 247.82C133.089 247.482 133.58 246.989 133.916 246.395C134.253 245.801 134.423 245.127 134.408 244.444C134.116 231.548 131.037 218.867 125.384 207.273C110.23 176.416 81.8873 164.13 70.3818 160.257L70.2527 160.213L70.1461 160.134C66.532 157.445 62.2373 155.821 57.7481 155.446C53.2589 155.071 48.7544 155.96 44.7442 158.013C40.2747 160.282 36.7365 164.04 34.7389 168.637C32.7412 173.235 32.4092 178.385 33.8 183.201L36.0113 190.834Z" fill="black"/>
<path d="M9.13806 269.278L18.7465 276.434C21.6124 278.561 24.7027 280.368 27.9622 281.822C31.8719 283.546 35.8895 285.014 39.9896 286.217C48.8629 288.821 70.7514 295.23 95.0925 286.273C113.759 279.403 125.36 266.629 131.411 258.289C131.828 257.732 132.089 257.075 132.169 256.383C132.248 255.692 132.143 254.992 131.863 254.355C131.583 253.718 131.139 253.167 130.577 252.758C130.014 252.348 129.353 252.096 128.66 252.026L22.9783 240.043C19.2426 239.62 15.4667 240.348 12.1565 242.13C8.84623 243.913 6.15985 246.665 4.45729 250.017C2.84164 253.264 2.42529 256.977 3.28175 260.502C4.1382 264.026 6.21238 267.135 9.13806 269.278V269.278Z" fill="#F44174"/>
<path d="M68.7822 291.728C55.8736 291.728 45.4737 288.675 39.7659 287.002C35.63 285.793 31.5784 284.312 27.6374 282.569C24.3192 281.091 21.174 279.252 18.259 277.085L8.64495 269.952C5.55144 267.697 3.35876 264.417 2.45739 260.696C1.55601 256.976 2.00445 253.056 3.72284 249.635C5.51292 246.139 8.32326 243.27 11.7813 241.407C15.2393 239.545 19.1817 238.778 23.0857 239.207L128.751 251.178C129.588 251.268 130.386 251.577 131.066 252.073C131.746 252.569 132.283 253.235 132.624 254.004C132.966 254.773 133.098 255.619 133.01 256.456C132.921 257.293 132.613 258.091 132.119 258.772C125.451 267.965 113.67 280.329 95.4076 287.053C86.8792 290.175 77.8641 291.758 68.7822 291.728V291.728ZM9.63835 268.577L19.2637 275.71C22.0755 277.805 25.1118 279.58 28.3165 281.003C32.1892 282.733 36.1714 284.206 40.2373 285.414C49.3632 288.091 70.7353 294.349 94.8183 285.487C112.677 278.915 124.211 266.803 130.738 257.801C131.062 257.359 131.264 256.839 131.322 256.294C131.38 255.749 131.293 255.198 131.069 254.697C130.853 254.198 130.507 253.765 130.068 253.444C129.629 253.122 129.113 252.923 128.571 252.868L22.8837 240.879C19.3185 240.489 15.7189 241.193 12.5631 242.897C9.40738 244.601 6.84478 247.225 5.21575 250.421C3.68976 253.482 3.2967 256.984 4.1062 260.308C4.91571 263.631 6.87551 266.56 9.63835 268.577V268.577Z" fill="black"/>
<path d="M1.42628 212.453C2.62614 217.481 4.8983 222.19 8.08721 226.259C11.2761 230.327 15.3065 233.659 19.9024 236.025L52.129 252.61C54.2898 253.457 57.4496 254.636 61.3166 255.876C69.5497 258.552 78.0003 260.505 86.5725 261.713C101.878 263.531 118.765 258.705 128.351 255.309C129.276 254.981 130.127 254.474 130.855 253.817C131.583 253.159 132.175 252.365 132.596 251.478C133.016 250.592 133.258 249.631 133.307 248.652C133.356 247.672 133.211 246.692 132.881 245.768C127.145 229.89 118.692 220.748 113.928 216.325C105.127 208.159 94.4468 202.709 85.9103 198.365C80.506 195.606 74.9629 193.128 69.303 190.94L41.8582 183.358C32.78 180.866 23.0859 182.043 14.8681 186.635L12.1123 188.173C7.93409 190.509 4.63068 194.142 2.70245 198.523C0.774215 202.904 0.326209 207.794 1.42628 212.453V212.453Z" fill="#F44174"/>
<path d="M93.6676 262.964C91.2727 262.971 88.8795 262.836 86.5005 262.56C81.281 261.937 71.4816 260.029 61.0594 256.69C57.9501 255.691 54.8408 254.585 51.8213 253.406L51.7427 253.373L19.5161 236.782C14.8103 234.362 10.6841 230.952 7.42118 226.786C4.15821 222.62 1.83578 217.797 0.613437 212.649V212.649C-0.530095 207.806 -0.0664906 202.722 1.93422 198.166C3.93493 193.61 7.36406 189.828 11.7036 187.393L14.4593 185.855C22.8747 181.134 32.8176 179.939 42.1118 182.533L69.6127 190.137C75.2997 192.338 80.8707 194.828 86.3041 197.596C94.9136 201.991 105.622 207.452 114.507 215.696C122.925 223.486 129.357 233.505 133.679 245.47C134.048 246.499 134.21 247.591 134.155 248.683C134.101 249.775 133.832 250.845 133.362 251.833C132.893 252.82 132.233 253.705 131.42 254.436C130.608 255.168 129.659 255.731 128.627 256.095C119.378 259.406 106.391 262.964 93.6676 262.964ZM52.4723 251.852C55.4469 253.019 58.5113 254.097 61.5757 255.084C71.8801 258.39 81.5503 260.276 86.7026 260.888C101.228 262.611 117.229 258.379 128.1 254.523C128.921 254.233 129.677 253.784 130.324 253.201C130.97 252.619 131.496 251.914 131.869 251.127C132.243 250.341 132.457 249.488 132.5 248.618C132.542 247.749 132.413 246.879 132.118 246.06C127.887 234.341 121.584 224.553 113.384 216.942C104.674 208.86 94.0773 203.472 85.5632 199.112C80.1938 196.375 74.6884 193.913 69.0683 191.737L41.6628 184.166C32.7962 181.698 23.3134 182.838 15.2843 187.337L12.5342 188.875C8.51343 191.131 5.33573 194.634 3.48091 198.854C1.62609 203.075 1.19484 207.785 2.25227 212.273V212.273C3.42248 217.182 5.64036 221.78 8.75386 225.752C11.8674 229.724 15.8029 232.975 20.2906 235.284L52.4723 251.852Z" fill="black"/>
<path d="M206.645 168.608C205.811 168.593 204.983 168.762 204.221 169.104C203.459 169.445 202.782 169.95 202.237 170.583C201.693 171.216 201.295 171.961 201.071 172.765C200.847 173.57 200.804 174.414 200.943 175.237C203.188 188.527 208.902 217.846 216.849 225.255C227.215 234.919 243.873 290.567 290.203 278.831C322.015 270.771 312.238 237.568 302.977 217.532C297.848 206.396 289.704 196.918 279.467 190.171C269.297 183.532 258.234 178.373 246.612 174.849C233.644 170.924 220.193 168.823 206.645 168.608V168.608Z" fill="#F44174"/>
<path d="M277.866 281.283C249.686 281.283 234.241 254.848 224.548 238.236C221.344 232.747 218.577 228.004 216.287 225.888C208.379 218.519 202.767 191.091 200.123 175.376C199.962 174.431 200.011 173.462 200.268 172.537C200.524 171.613 200.982 170.757 201.607 170.03C202.233 169.303 203.011 168.723 203.887 168.332C204.763 167.941 205.714 167.747 206.673 167.766V167.766C220.304 167.978 233.84 170.094 246.886 174.052C258.578 177.599 269.706 182.79 279.937 189.469C290.311 196.296 298.561 205.896 303.751 217.178C310.301 231.344 316.71 251.161 310.059 265.108C306.619 272.326 300.013 277.22 290.416 279.644C286.317 280.711 282.102 281.262 277.866 281.283V281.283ZM206.538 169.444C205.834 169.446 205.14 169.6 204.502 169.898C203.864 170.195 203.299 170.628 202.846 171.165C202.392 171.703 202.061 172.334 201.876 173.012C201.691 173.691 201.656 174.402 201.773 175.096C203.872 187.561 209.597 217.346 217.421 224.637C219.89 226.938 222.584 231.551 225.996 237.388C236.812 255.909 254.917 286.901 289.978 278.017C299.053 275.715 305.289 271.13 308.499 264.384C314.869 251.026 308.578 231.725 302.185 217.885C297.127 206.888 289.084 197.531 278.972 190.878C268.874 184.286 257.891 179.161 246.353 175.657C233.455 171.748 220.075 169.657 206.6 169.444H206.538Z" fill="black"/>
<path d="M392.889 340.978C394.5 340.136 377.663 176.814 330.518 113.955C283.374 51.0955 272.149 40.9932 272.149 40.9932C272.149 40.9932 271.026 88.6989 291.231 122.373C311.436 156.048 335.008 212.172 341.743 224.52C348.478 236.867 373.173 349.677 373.173 349.677L392.889 340.978Z" fill="#8BB174"/>
<path d="M372.571 350.861L372.352 349.856C372.1 348.734 347.601 237.046 341.001 224.923C338.823 220.933 334.906 212.408 329.945 201.615C319.691 179.317 304.2 145.625 290.506 122.805C270.408 89.3102 271.306 41.4529 271.306 40.9703L271.351 39.1406L272.709 40.3697C273.169 40.7795 284.534 51.241 331.191 113.449C355.621 146.001 371.448 204.932 380.417 248.63C390.385 297.172 394.353 338.429 393.769 341.062C393.744 341.203 393.687 341.338 393.604 341.455C393.52 341.573 393.412 341.67 393.287 341.741H393.23L372.571 350.861ZM272.99 43.03C273.068 52.4533 274.454 92.7618 291.96 121.941C305.693 144.834 321.212 178.582 331.477 200.908C336.427 211.672 340.339 220.175 342.488 224.115C348.937 235.946 371.157 336.56 373.778 348.492L392.158 340.416C392.428 335.859 388.19 294.854 378.756 248.933C369.815 205.437 354.061 146.787 329.844 114.493C291.993 63.9925 277.221 47.4751 272.99 43.03Z" fill="black"/>
<mask id="path-87-inside-1" fill="white">
<path d="M832.564 561.938L830.48 572.661L821.959 571.005L820.611 577.943L808.183 575.528L809.532 568.59L779.467 562.746L781.473 552.425L817.209 531.542L829.178 533.868L824.044 560.282L832.564 561.938ZM822.285 561.468L827.419 535.055L817.478 533.122L782.816 553.378L781.225 561.559L811.291 567.403L809.942 574.342L819.425 576.185L820.773 569.247L829.294 570.903L830.806 563.124L822.285 561.468ZM791.799 555.542L816.259 541.842L812.803 559.625L791.799 555.542ZM811.616 557.866L814.169 544.732L796.103 554.851L811.616 557.866ZM856.09 585.472C839.081 582.165 831.923 572.647 834.815 557.771C837.693 542.963 847.878 536.872 864.894 540.179C881.847 543.474 889.06 553.008 886.193 567.758C883.313 582.575 873.036 588.766 856.09 585.472ZM856.376 583.999C872.541 587.141 882.005 581.44 884.721 567.472C887.422 553.573 880.781 544.795 864.608 541.652C848.372 538.496 839 544.1 836.287 558.057C833.561 572.084 840.148 580.845 856.376 583.999ZM857.877 576.282C848.159 574.393 844.072 568.633 845.77 559.9C847.454 551.236 853.386 547.48 863.108 549.369C872.806 551.254 876.915 557.002 875.238 565.629C873.548 574.323 867.571 578.166 857.877 576.282ZM858.163 574.809C867.058 576.538 872.237 573.208 873.766 565.342C875.281 557.548 871.724 552.572 862.822 550.842C853.895 549.106 848.765 552.355 847.242 560.187C845.706 568.09 849.244 573.075 858.163 574.809ZM938.462 582.523L936.378 593.246L927.857 591.59L926.509 598.528L914.081 596.112L915.43 589.174L885.365 583.33L887.371 573.01L923.107 552.126L935.076 554.453L929.942 580.866L938.462 582.523ZM928.183 582.053L933.317 555.639L923.376 553.707L888.714 573.962L887.123 582.144L917.189 587.988L915.84 594.926L925.322 596.769L926.671 589.831L935.192 591.487L936.704 583.709L928.183 582.053ZM897.697 576.127L922.157 562.427L918.701 580.209L897.697 576.127ZM917.514 578.451L920.067 565.316L902.001 575.435L917.514 578.451Z"/>
</mask>
<path d="M832.564 561.938L830.48 572.661L821.959 571.005L820.611 577.943L808.183 575.528L809.532 568.59L779.467 562.746L781.473 552.425L817.209 531.542L829.178 533.868L824.044 560.282L832.564 561.938ZM822.285 561.468L827.419 535.055L817.478 533.122L782.816 553.378L781.225 561.559L811.291 567.403L809.942 574.342L819.425 576.185L820.773 569.247L829.294 570.903L830.806 563.124L822.285 561.468ZM791.799 555.542L816.259 541.842L812.803 559.625L791.799 555.542ZM811.616 557.866L814.169 544.732L796.103 554.851L811.616 557.866ZM856.09 585.472C839.081 582.165 831.923 572.647 834.815 557.771C837.693 542.963 847.878 536.872 864.894 540.179C881.847 543.474 889.06 553.008 886.193 567.758C883.313 582.575 873.036 588.766 856.09 585.472ZM856.376 583.999C872.541 587.141 882.005 581.44 884.721 567.472C887.422 553.573 880.781 544.795 864.608 541.652C848.372 538.496 839 544.1 836.287 558.057C833.561 572.084 840.148 580.845 856.376 583.999ZM857.877 576.282C848.159 574.393 844.072 568.633 845.77 559.9C847.454 551.236 853.386 547.48 863.108 549.369C872.806 551.254 876.915 557.002 875.238 565.629C873.548 574.323 867.571 578.166 857.877 576.282ZM858.163 574.809C867.058 576.538 872.237 573.208 873.766 565.342C875.281 557.548 871.724 552.572 862.822 550.842C853.895 549.106 848.765 552.355 847.242 560.187C845.706 568.09 849.244 573.075 858.163 574.809ZM938.462 582.523L936.378 593.246L927.857 591.59L926.509 598.528L914.081 596.112L915.43 589.174L885.365 583.33L887.371 573.01L923.107 552.126L935.076 554.453L929.942 580.866L938.462 582.523ZM928.183 582.053L933.317 555.639L923.376 553.707L888.714 573.962L887.123 582.144L917.189 587.988L915.84 594.926L925.322 596.769L926.671 589.831L935.192 591.487L936.704 583.709L928.183 582.053ZM897.697 576.127L922.157 562.427L918.701 580.209L897.697 576.127ZM917.514 578.451L920.067 565.316L902.001 575.435L917.514 578.451Z" fill="#F44174"/>
<path d="M832.564 561.938L835.509 562.511L836.082 559.566L833.137 558.993L832.564 561.938ZM830.48 572.661L829.908 575.606L832.852 576.179L833.425 573.234L830.48 572.661ZM821.959 571.005L822.532 568.06L819.587 567.488L819.015 570.433L821.959 571.005ZM820.611 577.943L820.038 580.888L822.983 581.461L823.556 578.516L820.611 577.943ZM808.183 575.528L805.238 574.955L804.666 577.9L807.611 578.473L808.183 575.528ZM809.532 568.59L812.477 569.162L813.049 566.217L810.104 565.645L809.532 568.59ZM779.467 562.746L776.522 562.173L775.949 565.118L778.894 565.69L779.467 562.746ZM781.473 552.425L779.959 549.835L778.787 550.52L778.528 551.853L781.473 552.425ZM817.209 531.542L817.782 528.597L816.672 528.381L815.696 528.952L817.209 531.542ZM829.178 533.868L832.123 534.441L832.695 531.496L829.751 530.923L829.178 533.868ZM824.044 560.282L821.099 559.71L820.527 562.654L823.471 563.227L824.044 560.282ZM822.285 561.468L819.34 560.896L818.768 563.841L821.713 564.413L822.285 561.468ZM827.419 535.055L830.364 535.627L830.937 532.682L827.992 532.11L827.419 535.055ZM817.478 533.122L818.051 530.177L816.941 529.962L815.965 530.532L817.478 533.122ZM782.816 553.378L781.302 550.788L780.13 551.473L779.871 552.805L782.816 553.378ZM781.225 561.559L778.28 560.987L777.708 563.932L780.653 564.504L781.225 561.559ZM811.291 567.403L814.236 567.976L814.808 565.031L811.863 564.459L811.291 567.403ZM809.942 574.342L806.997 573.769L806.425 576.714L809.37 577.286L809.942 574.342ZM819.425 576.185L818.852 579.13L821.797 579.702L822.369 576.757L819.425 576.185ZM820.773 569.247L821.346 566.302L818.401 565.729L817.828 568.674L820.773 569.247ZM829.294 570.903L828.721 573.848L831.666 574.42L832.239 571.475L829.294 570.903ZM830.806 563.124L833.751 563.697L834.323 560.752L831.378 560.18L830.806 563.124ZM791.799 555.542L790.333 552.925L783.191 556.925L791.227 558.487L791.799 555.542ZM816.259 541.842L819.204 542.415L820.439 536.063L814.793 539.225L816.259 541.842ZM812.803 559.625L812.23 562.57L815.175 563.142L815.747 560.197L812.803 559.625ZM811.616 557.866L811.044 560.811L813.989 561.384L814.561 558.439L811.616 557.866ZM814.169 544.732L817.114 545.304L818.349 538.952L812.703 542.114L814.169 544.732ZM796.103 554.851L794.637 552.234L787.495 556.234L795.531 557.796L796.103 554.851ZM938.462 582.523L941.407 583.095L941.98 580.15L939.035 579.578L938.462 582.523ZM936.378 593.246L935.805 596.191L938.75 596.763L939.323 593.818L936.378 593.246ZM927.857 591.59L928.43 588.645L925.485 588.072L924.912 591.017L927.857 591.59ZM926.509 598.528L925.936 601.473L928.881 602.045L929.454 599.1L926.509 598.528ZM914.081 596.112L911.136 595.54L910.564 598.485L913.509 599.057L914.081 596.112ZM915.43 589.174L918.375 589.747L918.947 586.802L916.002 586.229L915.43 589.174ZM885.365 583.33L882.42 582.758L881.847 585.702L884.792 586.275L885.365 583.33ZM887.371 573.01L885.857 570.42L884.685 571.105L884.426 572.437L887.371 573.01ZM923.107 552.126L923.68 549.181L922.57 548.966L921.594 549.536L923.107 552.126ZM935.076 554.453L938.021 555.025L938.593 552.08L935.648 551.508L935.076 554.453ZM929.942 580.866L926.997 580.294L926.424 583.239L929.369 583.811L929.942 580.866ZM928.183 582.053L925.238 581.48L924.666 584.425L927.611 584.998L928.183 582.053ZM933.317 555.639L936.262 556.211L936.835 553.267L933.89 552.694L933.317 555.639ZM923.376 553.707L923.949 550.762L922.839 550.546L921.862 551.116L923.376 553.707ZM888.714 573.962L887.2 571.372L886.028 572.057L885.769 573.39L888.714 573.962ZM887.123 582.144L884.178 581.571L883.606 584.516L886.551 585.089L887.123 582.144ZM917.189 587.988L920.133 588.56L920.706 585.615L917.761 585.043L917.189 587.988ZM915.84 594.926L912.895 594.354L912.323 597.298L915.268 597.871L915.84 594.926ZM925.322 596.769L924.75 599.714L927.695 600.287L928.267 597.342L925.322 596.769ZM926.671 589.831L927.244 586.886L924.299 586.314L923.726 589.259L926.671 589.831ZM935.192 591.487L934.619 594.432L937.564 595.005L938.137 592.06L935.192 591.487ZM936.704 583.709L939.649 584.281L940.221 581.336L937.276 580.764L936.704 583.709ZM897.697 576.127L896.231 573.509L889.089 577.51L897.125 579.072L897.697 576.127ZM922.157 562.427L925.102 562.999L926.337 556.647L920.691 559.809L922.157 562.427ZM918.701 580.209L918.128 583.154L921.073 583.727L921.645 580.782L918.701 580.209ZM917.514 578.451L916.942 581.396L919.887 581.968L920.459 579.023L917.514 578.451ZM920.067 565.316L923.012 565.889L924.247 559.537L918.601 562.699L920.067 565.316ZM902.001 575.435L900.535 572.818L893.393 576.818L901.429 578.38L902.001 575.435ZM829.619 561.366L827.535 572.089L833.425 573.234L835.509 562.511L829.619 561.366ZM831.052 569.717L822.532 568.06L821.387 573.95L829.908 575.606L831.052 569.717ZM819.015 570.433L817.666 577.371L823.556 578.516L824.904 571.578L819.015 570.433ZM821.183 574.999L808.756 572.583L807.611 578.473L820.038 580.888L821.183 574.999ZM811.128 576.1L812.477 569.162L806.587 568.017L805.238 574.955L811.128 576.1ZM810.104 565.645L780.039 559.801L778.894 565.69L808.96 571.534L810.104 565.645ZM782.412 563.318L784.418 552.998L778.528 551.853L776.522 562.173L782.412 563.318ZM782.986 555.015L818.723 534.132L815.696 528.952L779.959 549.835L782.986 555.015ZM816.637 534.487L828.606 536.813L829.751 530.923L817.782 528.597L816.637 534.487ZM826.233 533.296L821.099 559.71L826.989 560.854L832.123 534.441L826.233 533.296ZM823.471 563.227L831.992 564.883L833.137 558.993L824.616 557.337L823.471 563.227ZM825.23 562.041L830.364 535.627L824.475 534.482L819.34 560.896L825.23 562.041ZM827.992 532.11L818.051 530.177L816.906 536.067L826.847 537.999L827.992 532.11ZM815.965 530.532L781.302 550.788L784.329 555.968L818.992 535.712L815.965 530.532ZM779.871 552.805L778.28 560.987L784.17 562.132L785.761 553.95L779.871 552.805ZM780.653 564.504L810.718 570.348L811.863 564.459L781.798 558.614L780.653 564.504ZM808.346 566.831L806.997 573.769L812.887 574.914L814.236 567.976L808.346 566.831ZM809.37 577.286L818.852 579.13L819.997 573.24L810.514 571.397L809.37 577.286ZM822.369 576.757L823.718 569.819L817.828 568.674L816.48 575.612L822.369 576.757ZM820.201 572.191L828.721 573.848L829.866 567.958L821.346 566.302L820.201 572.191ZM832.239 571.475L833.751 563.697L827.861 562.552L826.349 570.33L832.239 571.475ZM831.378 560.18L822.858 558.523L821.713 564.413L830.233 566.069L831.378 560.18ZM793.265 558.16L817.725 544.46L814.793 539.225L790.333 552.925L793.265 558.16ZM813.314 541.27L809.858 559.053L815.747 560.197L819.204 542.415L813.314 541.27ZM813.375 556.68L792.372 552.597L791.227 558.487L812.23 562.57L813.375 556.68ZM814.561 558.439L817.114 545.304L811.225 544.159L808.672 557.294L814.561 558.439ZM812.703 542.114L794.637 552.234L797.569 557.468L815.635 547.349L812.703 542.114ZM795.531 557.796L811.044 560.811L812.189 554.921L796.676 551.906L795.531 557.796ZM856.663 582.527C848.556 580.951 843.316 577.99 840.374 574.139C837.482 570.354 836.426 565.202 837.76 558.343L831.87 557.199C830.312 565.216 831.388 572.261 835.606 577.781C839.771 583.234 846.615 586.686 855.518 588.416L856.663 582.527ZM837.76 558.343C839.086 551.522 841.984 547.173 846.074 544.768C850.24 542.317 856.207 541.547 864.322 543.124L865.467 537.234C856.565 535.504 848.932 536.126 843.032 539.596C837.055 543.111 833.422 549.212 831.87 557.199L837.76 558.343ZM864.322 543.124C872.397 544.694 877.642 547.655 880.597 551.501C883.499 555.278 884.567 560.403 883.248 567.186L889.138 568.33C890.687 560.364 889.581 553.347 885.355 547.845C881.181 542.413 874.344 538.96 865.467 537.234L864.322 543.124ZM883.248 567.186C881.922 574.006 879.002 578.39 874.888 580.825C870.703 583.302 864.73 584.095 856.663 582.527L855.518 588.416C864.397 590.142 872.035 589.487 877.945 585.988C883.926 582.447 887.584 576.327 889.138 568.33L883.248 567.186ZM855.804 586.944C864.269 588.589 871.513 588.03 877.113 584.738C882.791 581.399 886.197 575.598 887.666 568.044L881.776 566.899C880.529 573.314 877.845 577.347 874.072 579.566C870.219 581.831 864.649 582.551 856.949 581.054L855.804 586.944ZM887.666 568.044C889.128 560.521 888.137 553.894 884.115 548.693C880.153 543.569 873.644 540.352 865.18 538.707L864.035 544.597C871.744 546.095 876.643 548.839 879.369 552.364C882.036 555.812 883.015 560.524 881.776 566.899L887.666 568.044ZM865.18 538.707C856.693 537.057 849.453 537.582 843.863 540.846C838.189 544.16 834.808 549.942 833.342 557.485L839.232 558.63C840.479 552.215 843.141 548.217 846.889 546.028C850.723 543.789 856.287 543.09 864.035 544.597L865.18 538.707ZM833.342 557.485C831.87 565.059 832.833 571.714 836.845 576.934C840.801 582.079 847.316 585.294 855.804 586.944L856.949 581.054C849.209 579.55 844.316 576.807 841.602 573.277C838.946 569.821 837.978 565.083 839.232 558.63L833.342 557.485ZM858.449 573.337C854.034 572.479 851.39 570.836 849.964 568.886C848.569 566.979 847.975 564.276 848.715 560.473L842.825 559.328C841.867 564.257 842.468 568.801 845.121 572.428C847.744 576.014 852.002 578.196 857.304 579.226L858.449 573.337ZM848.715 560.473C849.446 556.71 850.997 554.46 852.994 553.234C855.042 551.976 858.11 551.454 862.535 552.314L863.68 546.424C858.384 545.395 853.625 545.806 849.855 548.12C846.035 550.466 843.778 554.427 842.825 559.328L848.715 560.473ZM862.535 552.314C866.941 553.171 869.592 554.811 871.025 556.752C872.424 558.648 873.02 561.319 872.293 565.056L878.183 566.201C879.133 561.312 878.514 556.796 875.853 553.19C873.225 549.629 868.973 547.453 863.68 546.424L862.535 552.314ZM872.293 565.056C871.559 568.833 869.994 571.12 867.976 572.374C865.916 573.653 862.845 574.191 858.449 573.337L857.304 579.226C862.603 580.256 867.368 579.815 871.142 577.47C874.959 575.1 877.227 571.118 878.183 566.201L872.293 565.056ZM857.59 577.754C862.449 578.698 866.824 578.368 870.3 576.228C873.827 574.056 875.842 570.384 876.711 565.915L870.821 564.77C870.161 568.166 868.821 570.093 867.154 571.119C865.434 572.178 862.772 572.649 858.735 571.864L857.59 577.754ZM876.711 565.915C877.574 561.474 877.074 557.341 874.607 554.026C872.18 550.768 868.247 548.84 863.394 547.897L862.249 553.787C866.298 554.574 868.595 555.999 869.794 557.61C870.952 559.164 871.473 561.416 870.821 564.77L876.711 565.915ZM863.394 547.897C858.537 546.953 854.167 547.253 850.697 549.363C847.165 551.511 845.162 555.163 844.297 559.614L850.187 560.759C850.844 557.378 852.168 555.49 853.814 554.49C855.521 553.452 858.18 552.996 862.249 553.787L863.394 547.897ZM844.297 559.614C843.426 564.094 843.908 568.256 846.367 571.592C848.789 574.876 852.728 576.809 857.59 577.754L858.735 571.864C854.678 571.076 852.389 569.648 851.196 568.031C850.041 566.465 849.522 564.182 850.187 560.759L844.297 559.614ZM935.517 581.95L933.433 592.674L939.323 593.818L941.407 583.095L935.517 581.95ZM936.95 590.301L928.43 588.645L927.285 594.535L935.805 596.191L936.95 590.301ZM924.912 591.017L923.564 597.955L929.454 599.1L930.802 592.162L924.912 591.017ZM927.081 595.583L914.654 593.167L913.509 599.057L925.936 601.473L927.081 595.583ZM917.026 596.685L918.375 589.747L912.485 588.602L911.136 595.54L917.026 596.685ZM916.002 586.229L885.937 580.385L884.792 586.275L914.858 592.119L916.002 586.229ZM888.31 583.902L890.316 573.582L884.426 572.437L882.42 582.758L888.31 583.902ZM888.884 575.6L924.621 554.716L921.594 549.536L885.857 570.42L888.884 575.6ZM922.535 555.071L934.504 557.398L935.648 551.508L923.68 549.181L922.535 555.071ZM932.131 553.88L926.997 580.294L932.887 581.439L938.021 555.025L932.131 553.88ZM929.369 583.811L937.89 585.468L939.035 579.578L930.514 577.922L929.369 583.811ZM931.128 582.625L936.262 556.211L930.373 555.067L925.238 581.48L931.128 582.625ZM933.89 552.694L923.949 550.762L922.804 556.652L932.745 558.584L933.89 552.694ZM921.862 551.116L887.2 571.372L890.227 576.552L924.89 556.297L921.862 551.116ZM885.769 573.39L884.178 581.571L890.068 582.716L891.659 574.535L885.769 573.39ZM886.551 585.089L916.616 590.933L917.761 585.043L887.696 579.199L886.551 585.089ZM914.244 587.415L912.895 594.354L918.785 595.498L920.133 588.56L914.244 587.415ZM915.268 597.871L924.75 599.714L925.895 593.824L916.412 591.981L915.268 597.871ZM928.267 597.342L929.616 590.403L923.726 589.259L922.378 596.197L928.267 597.342ZM926.099 592.776L934.619 594.432L935.764 588.542L927.244 586.886L926.099 592.776ZM938.137 592.06L939.649 584.281L933.759 583.136L932.247 590.915L938.137 592.06ZM937.276 580.764L928.756 579.108L927.611 584.998L936.131 586.654L937.276 580.764ZM899.163 578.744L923.623 565.044L920.691 559.809L896.231 573.509L899.163 578.744ZM919.212 561.854L915.756 579.637L921.645 580.782L925.102 562.999L919.212 561.854ZM919.273 577.265L898.27 573.182L897.125 579.072L918.128 583.154L919.273 577.265ZM920.459 579.023L923.012 565.889L917.123 564.744L914.569 577.878L920.459 579.023ZM918.601 562.699L900.535 572.818L903.467 578.053L921.533 567.934L918.601 562.699ZM901.429 578.38L916.942 581.396L918.087 575.506L902.574 572.49L901.429 578.38Z" fill="#F44174" mask="url(#path-87-inside-1)"/>
</svg>
